<svg xmlns="http://www.w3.org/2000/svg" width="1800.0" height="2400.0" viewBox="0 0 1800.0 2400.0">
  <defs>
    <radialGradient id="glow" cx="0.5" cy="0.5" r="0.5">
      <stop offset="0%" stop-color="#E8A33D" stop-opacity="0.42"/>
      <stop offset="62%" stop-color="#E8A33D" stop-opacity="0.16"/>
      <stop offset="100%" stop-color="#E8A33D" stop-opacity="0"/>
    </radialGradient>
    <clipPath id="court-zone">
      <rect x="0" y="132.0" width="1800.0" height="1632.0"/>
    </clipPath>
  </defs>
  <rect x="0" y="0" width="1800.0" height="2400.0" fill="#1E3A2F"/>

  <g clip-path="url(#court-zone)">
    <circle cx="900.0" cy="1332.0" r="1116.6" fill="url(#glow)"/>
    
    <circle cx="900.0" cy="1332.0" r="299.4" fill="none"
            stroke="#F4EBDD"
            stroke-width="2.9"
            opacity="0.12"/>
    
    <circle cx="900.0" cy="1332.0" r="598.7" fill="none"
            stroke="#D6532B"
            stroke-width="2.9"
            opacity="0.30"/>
    
    <circle cx="900.0" cy="1332.0" r="898.1" fill="none"
            stroke="#F4EBDD"
            stroke-width="2.9"
            opacity="0.12"/>
    
    
    <circle cx="900.0" cy="1332.0" r="1116.6" fill="none"
            stroke="#E8A33D" stroke-width="5.2" opacity="0.85"/>
    
    <path d="M 241.4 1489.2 L 241.4 1064.1 A 711.0 711.0 0 0 1 1558.6 1064.1 L 1558.6 1489.2" fill="none" stroke="#F4EBDD" stroke-width="2.9" opacity="0.12"/>
    <line x1="151.6" y1="1489.2" x2="1648.4" y2="1489.2"
          stroke="#F4EBDD" stroke-width="2.9" opacity="0.30"/>

    
    <path d="M 871.3 216.0 Q 885.6 193.5 900.0 1332.0" fill="none"
          stroke="#E8A33D"
          stroke-width="9.0" opacity="0.55" stroke-linecap="round"/>
    
    <path d="M 871.3 216.0 Q 885.6 115.3 900.0 1332.0" fill="none"
          stroke="#D6532B"
          stroke-width="6.3" opacity="0.35" stroke-linecap="round"/>
    
    <path d="M 871.3 216.0 Q 885.6 37.2 900.0 1332.0" fill="none"
          stroke="#F4EBDD"
          stroke-width="4.5" opacity="0.16" stroke-linecap="round"/>
    
    <path d="M 871.3 216.0 Q 885.6 271.6 900.0 1332.0" fill="none" stroke="#F4EBDD"
          stroke-width="15.3" stroke-linecap="round"/>

    <line x1="810.2" y1="1369.4" x2="989.8" y2="1369.4"
          stroke="#F4EBDD" stroke-width="6.9"/>
    <circle cx="900.0" cy="1332.0" r="22.5" fill="none"
            stroke="#F4EBDD" stroke-width="5.8"/>
    <circle cx="871.3" cy="216.0" r="57.2" fill="none"
            stroke="#D6532B" stroke-width="2.9" opacity="0.8"/>
    <g>
      <circle cx="871.3" cy="216.0" r="36.9" fill="#D6532B"/>
      <g fill="none" stroke="#1E3A2F" stroke-width="3.2">
        <circle cx="871.3" cy="216.0" r="36.9"/>
        <line x1="834.4" y1="216.0" x2="908.2" y2="216.0"/>
        <line x1="871.3" y1="179.1" x2="871.3" y2="252.9"/>
        <path d="M 871.3 179.1 Q 828.8 216.0 871.3 252.9"/>
        <path d="M 871.3 179.1 Q 913.7 216.0 871.3 252.9"/>
      </g>
    </g>
  </g>

  <line x1="135.0" y1="1824.0" x2="1665.0" y2="1824.0"
        stroke="#E8A33D" stroke-width="8.6"/>

  <text x="135.0" y="2155.2" font-family="Anton, Impact, Arial Narrow, sans-serif"
        font-size="360.0" fill="#F4EBDD">0:02</text>

  <text x="1665.0" y="1948.8" font-family="Space Grotesk, Helvetica, Arial, sans-serif" font-weight="700"
        font-size="61.2" fill="#F4EBDD" text-anchor="end"
        letter-spacing="3.1">MILWAUKEE 103</text>
  <text x="1665.0" y="2031.6" font-family="Space Grotesk, Helvetica, Arial, sans-serif" font-weight="700"
        font-size="61.2" fill="#D6532B" text-anchor="end"
        letter-spacing="3.1">ATLANTA 106</text>

  <text x="135.0" y="2275.2" font-family="Space Mono, DejaVu Sans Mono, Courier New, monospace"
        font-size="28.8" fill="#F4EBDD" opacity="0.65"
        letter-spacing="5.2">JUNE 27, 2007</text>
  <text x="1665.0" y="2275.2" font-family="Space Mono, DejaVu Sans Mono, Courier New, monospace"
        font-size="28.8" fill="#D6532B" text-anchor="end"
        letter-spacing="5.2">Q4 — ROUND 1 — GAME 6 — 37 FT</text>
</svg>